<svg width="292" height="73" viewBox="0 0 292 73" fill="none" xmlns="http://www.w3.org/2000/svg">
<g filter="url(#filter0_d_53813_32183)">
<rect width="292" height="66" fill="#F8D26D" shape-rendering="crispEdges"/>
<rect x="3" y="3" width="286" height="60" stroke="#DFA46D" stroke-width="6" shape-rendering="crispEdges"/>
<path d="M96.9316 44C97.065 44.5333 97.1316 45.2 97.1316 46C97.1316 46.7667 97.065 47.4333 96.9316 48H92.9316C92.7983 47.4333 92.7316 46.7667 92.7316 46C92.7316 45.2 92.7983 44.5333 92.9316 44H91.4316C91.2983 43.4333 91.2316 42.7667 91.2316 42C91.2316 41.2 91.2983 40.5333 91.4316 40H89.9316C89.7983 39.4333 89.7316 38.7667 89.7316 38C89.7316 37.2 89.7983 36.5333 89.9316 36H84.9316C85.065 36.5333 85.1316 37.2 85.1316 38C85.1316 38.7667 85.065 39.4333 84.9316 40C85.065 40.5333 85.1316 41.2 85.1316 42C85.1316 42.7667 85.065 43.4333 84.9316 44C85.065 44.5333 85.1316 45.2 85.1316 46C85.1316 46.7667 85.065 47.4333 84.9316 48H80.9316C80.7983 47.4333 80.7316 46.7667 80.7316 46C80.7316 45.2 80.7983 44.5333 80.9316 44C80.7983 43.4333 80.7316 42.7667 80.7316 42C80.7316 41.2 80.7983 40.5333 80.9316 40C80.7983 39.4333 80.7316 38.7667 80.7316 38C80.7316 37.2 80.7983 36.5333 80.9316 36C80.7983 35.4333 80.7316 34.7667 80.7316 34C80.7316 33.2 80.7983 32.5333 80.9316 32C80.7983 31.4333 80.7316 30.7667 80.7316 30C80.7316 29.2 80.7983 28.5333 80.9316 28C80.7983 27.4333 80.7316 26.7667 80.7316 26C80.7316 25.2 80.7983 24.5333 80.9316 24C80.7983 23.4333 80.7316 22.7667 80.7316 22C80.7316 21.2 80.7983 20.5333 80.9316 20H94.9316C95.065 20.5333 95.1316 21.2 95.1316 22C95.1316 22.7667 95.065 23.4333 94.9316 24H96.9316C97.065 24.5333 97.1316 25.2 97.1316 26C97.1316 26.7667 97.065 27.4333 96.9316 28H95.9316C96.065 28.5333 96.1316 29.2 96.1316 30C96.1316 30.7667 96.065 31.4333 95.9316 32H92.9316C93.065 32.5333 93.1316 33.2 93.1316 34C93.1316 34.7667 93.065 35.4333 92.9316 36H93.9316C94.065 36.5333 94.1316 37.2 94.1316 38C94.1316 38.7667 94.065 39.4333 93.9316 40H95.4316C95.565 40.5333 95.6316 41.2 95.6316 42C95.6316 42.7667 95.565 43.4333 95.4316 44H96.9316ZM91.9316 32C91.7983 31.4333 91.7316 30.7667 91.7316 30C91.7316 29.2 91.7983 28.5333 91.9316 28C91.7983 27.4333 91.7316 26.7667 91.7316 26C91.7316 25.2 91.7983 24.5333 91.9316 24H84.9316C85.065 24.5333 85.1316 25.2 85.1316 26C85.1316 26.7667 85.065 27.4333 84.9316 28C85.065 28.5333 85.1316 29.2 85.1316 30C85.1316 30.7667 85.065 31.4333 84.9316 32H91.9316ZM116.151 34C116.151 34.7667 116.085 35.4333 115.951 36C116.085 36.5333 116.151 37.2 116.151 38C116.151 38.7667 116.085 39.4333 115.951 40H105.451C105.585 40.5333 105.651 41.2 105.651 42C105.651 42.7667 105.585 43.4333 105.451 44H113.951C114.085 44.5333 114.151 45.2 114.151 46C114.151 46.7667 114.085 47.4333 113.951 48H103.951C103.818 47.4333 103.751 46.7667 103.751 46C103.751 45.2 103.818 44.5333 103.951 44H101.451C101.318 43.4333 101.251 42.7667 101.251 42C101.251 41.2 101.318 40.5333 101.451 40H99.9512C99.8178 39.4333 99.7512 38.7667 99.7512 38C99.7512 37.2 99.8178 36.5333 99.9512 36H101.451C101.318 35.4333 101.251 34.7667 101.251 34C101.251 33.2 101.318 32.5333 101.451 32H103.951C103.818 31.4333 103.751 30.7667 103.751 30C103.751 29.2 103.818 28.5333 103.951 28H113.951C114.085 28.5333 114.151 29.2 114.151 30C114.151 30.7667 114.085 31.4333 113.951 32H115.951C116.085 32.5333 116.151 33.2 116.151 34ZM111.951 36C111.818 35.4333 111.751 34.7667 111.751 34C111.751 33.2 111.818 32.5333 111.951 32H105.451C105.585 32.5333 105.651 33.2 105.651 34C105.651 34.7667 105.585 35.4333 105.451 36H111.951ZM134.171 42C134.171 42.7667 134.104 43.4333 133.971 44H131.971C132.104 44.5333 132.171 45.2 132.171 46C132.171 46.7667 132.104 47.4333 131.971 48H120.971C120.837 47.4333 120.771 46.7667 120.771 46C120.771 45.2 120.837 44.5333 120.971 44H129.971C129.837 43.4333 129.771 42.7667 129.771 42C129.771 41.2 129.837 40.5333 129.971 40H121.971C121.837 39.4333 121.771 38.7667 121.771 38C121.771 37.2 121.837 36.5333 121.971 36H119.971C119.837 35.4333 119.771 34.7667 119.771 34C119.771 33.2 119.837 32.5333 119.971 32H121.971C121.837 31.4333 121.771 30.7667 121.771 30C121.771 29.2 121.837 28.5333 121.971 28H132.971C133.104 28.5333 133.171 29.2 133.171 30C133.171 30.7667 133.104 31.4333 132.971 32H123.971C124.104 32.5333 124.171 33.2 124.171 34C124.171 34.7667 124.104 35.4333 123.971 36H131.971C132.104 36.5333 132.171 37.2 132.171 38C132.171 38.7667 132.104 39.4333 131.971 40H133.971C134.104 40.5333 134.171 41.2 134.171 42ZM151.99 44C152.124 44.5333 152.19 45.2 152.19 46C152.19 46.7667 152.124 47.4333 151.99 48H143.99C143.857 47.4333 143.79 46.7667 143.79 46C143.79 45.2 143.857 44.5333 143.99 44H141.99C141.857 43.4333 141.79 42.7667 141.79 42C141.79 41.2 141.857 40.5333 141.99 40C141.857 39.4333 141.79 38.7667 141.79 38C141.79 37.2 141.857 36.5333 141.99 36C141.857 35.4333 141.79 34.7667 141.79 34C141.79 33.2 141.857 32.5333 141.99 32H137.99C137.857 31.4333 137.79 30.7667 137.79 30C137.79 29.2 137.857 28.5333 137.99 28H141.99C141.857 27.4333 141.79 26.7667 141.79 26C141.79 25.2 141.857 24.5333 141.99 24C141.857 23.4333 141.79 22.7667 141.79 22C141.79 21.2 141.857 20.5333 141.99 20H145.99C146.124 20.5333 146.19 21.2 146.19 22C146.19 22.7667 146.124 23.4333 145.99 24C146.124 24.5333 146.19 25.2 146.19 26C146.19 26.7667 146.124 27.4333 145.99 28H151.99C152.124 28.5333 152.19 29.2 152.19 30C152.19 30.7667 152.124 31.4333 151.99 32H145.99C146.124 32.5333 146.19 33.2 146.19 34C146.19 34.7667 146.124 35.4333 145.99 36C146.124 36.5333 146.19 37.2 146.19 38C146.19 38.7667 146.124 39.4333 145.99 40C146.124 40.5333 146.19 41.2 146.19 42C146.19 42.7667 146.124 43.4333 145.99 44H151.99ZM173.01 44C173.143 44.5333 173.21 45.2 173.21 46C173.21 46.7667 173.143 47.4333 173.01 48H169.01C168.876 47.4333 168.81 46.7667 168.81 46C168.81 45.2 168.876 44.5333 169.01 44H167.01C166.876 43.4333 166.81 42.7667 166.81 42C166.81 41.2 166.876 40.5333 167.01 40H161.01C161.143 40.5333 161.21 41.2 161.21 42C161.21 42.7667 161.143 43.4333 161.01 44H167.01C167.143 44.5333 167.21 45.2 167.21 46C167.21 46.7667 167.143 47.4333 167.01 48H159.01C158.876 47.4333 158.81 46.7667 158.81 46C158.81 45.2 158.876 44.5333 159.01 44H157.01C156.876 43.4333 156.81 42.7667 156.81 42C156.81 41.2 156.876 40.5333 157.01 40H159.01C158.876 39.4333 158.81 38.7667 158.81 38C158.81 37.2 158.876 36.5333 159.01 36H167.01C166.876 35.4333 166.81 34.7667 166.81 34C166.81 33.2 166.876 32.5333 167.01 32H160.01C159.876 31.4333 159.81 30.7667 159.81 30C159.81 29.2 159.876 28.5333 160.01 28H169.01C169.143 28.5333 169.21 29.2 169.21 30C169.21 30.7667 169.143 31.4333 169.01 32H171.01C171.143 32.5333 171.21 33.2 171.21 34C171.21 34.7667 171.143 35.4333 171.01 36C171.143 36.5333 171.21 37.2 171.21 38C171.21 38.7667 171.143 39.4333 171.01 40C171.143 40.5333 171.21 41.2 171.21 42C171.21 42.7667 171.143 43.4333 171.01 44H173.01ZM192.029 32C192.163 32.5333 192.229 33.2 192.229 34C192.229 34.7667 192.163 35.4333 192.029 36H188.029C187.896 35.4333 187.829 34.7667 187.829 34C187.829 33.2 187.896 32.5333 188.029 32H184.529C184.663 32.5333 184.729 33.2 184.729 34C184.729 34.7667 184.663 35.4333 184.529 36H183.029C183.163 36.5333 183.229 37.2 183.229 38C183.229 38.7667 183.163 39.4333 183.029 40C183.163 40.5333 183.229 41.2 183.229 42C183.229 42.7667 183.163 43.4333 183.029 44H186.029C186.163 44.5333 186.229 45.2 186.229 46C186.229 46.7667 186.163 47.4333 186.029 48H176.029C175.896 47.4333 175.829 46.7667 175.829 46C175.829 45.2 175.896 44.5333 176.029 44H179.029C178.896 43.4333 178.829 42.7667 178.829 42C178.829 41.2 178.896 40.5333 179.029 40C178.896 39.4333 178.829 38.7667 178.829 38C178.829 37.2 178.896 36.5333 179.029 36C178.896 35.4333 178.829 34.7667 178.829 34C178.829 33.2 178.896 32.5333 179.029 32H176.029C175.896 31.4333 175.829 30.7667 175.829 30C175.829 29.2 175.896 28.5333 176.029 28H181.029C181.163 28.5333 181.229 29.2 181.229 30C181.229 30.7667 181.163 31.4333 181.029 32H183.029C182.896 31.4333 182.829 30.7667 182.829 30C182.829 29.2 182.896 28.5333 183.029 28H190.529C190.663 28.5333 190.729 29.2 190.729 30C190.729 30.7667 190.663 31.4333 190.529 32H192.029ZM209.049 44C209.182 44.5333 209.249 45.2 209.249 46C209.249 46.7667 209.182 47.4333 209.049 48H201.049C200.915 47.4333 200.849 46.7667 200.849 46C200.849 45.2 200.915 44.5333 201.049 44H199.049C198.915 43.4333 198.849 42.7667 198.849 42C198.849 41.2 198.915 40.5333 199.049 40C198.915 39.4333 198.849 38.7667 198.849 38C198.849 37.2 198.915 36.5333 199.049 36C198.915 35.4333 198.849 34.7667 198.849 34C198.849 33.2 198.915 32.5333 199.049 32H195.049C194.915 31.4333 194.849 30.7667 194.849 30C194.849 29.2 194.915 28.5333 195.049 28H199.049C198.915 27.4333 198.849 26.7667 198.849 26C198.849 25.2 198.915 24.5333 199.049 24C198.915 23.4333 198.849 22.7667 198.849 22C198.849 21.2 198.915 20.5333 199.049 20H203.049C203.182 20.5333 203.249 21.2 203.249 22C203.249 22.7667 203.182 23.4333 203.049 24C203.182 24.5333 203.249 25.2 203.249 26C203.249 26.7667 203.182 27.4333 203.049 28H209.049C209.182 28.5333 209.249 29.2 209.249 30C209.249 30.7667 209.182 31.4333 209.049 32H203.049C203.182 32.5333 203.249 33.2 203.249 34C203.249 34.7667 203.182 35.4333 203.049 36C203.182 36.5333 203.249 37.2 203.249 38C203.249 38.7667 203.182 39.4333 203.049 40C203.182 40.5333 203.249 41.2 203.249 42C203.249 42.7667 203.182 43.4333 203.049 44H209.049Z" fill="#1C1C1C"/>
</g>
<defs>
<filter id="filter0_d_53813_32183" x="0" y="0" width="292" height="73" filterUnits="userSpaceOnUse" color-interpolation-filters="sRGB">
<feFlood flood-opacity="0" result="BackgroundImageFix"/>
<feColorMatrix in="SourceAlpha" type="matrix" values="0 0 0 0 0 0 0 0 0 0 0 0 0 0 0 0 0 0 127 0" result="hardAlpha"/>
<feOffset dy="7"/>
<feComposite in2="hardAlpha" operator="out"/>
<feColorMatrix type="matrix" values="0 0 0 0 0.447059 0 0 0 0 0.301961 0 0 0 0 0.313726 0 0 0 1 0"/>
<feBlend mode="normal" in2="BackgroundImageFix" result="effect1_dropShadow_53813_32183"/>
<feBlend mode="normal" in="SourceGraphic" in2="effect1_dropShadow_53813_32183" result="shape"/>
</filter>
</defs>
</svg>
