<svg width="152" height="131" viewBox="0 0 152 131" fill="none" xmlns="http://www.w3.org/2000/svg">
<g id="State=Sleeping 1">
<rect id="Rectangle 1092" x="52" y="125" width="47" height="6" fill="white"/>
<rect id="Rectangle 1093" x="60" y="117" width="35" height="8" fill="white"/>
<path id="Union" fill-rule="evenodd" clip-rule="evenodd" d="M8 30H22V42H46V30H64V42H66V61H96V67H104V83H120V73H128V68H136V78H132V85H128V95H104V117H96H90H52V109H42V106H30V90H21V78H8V30Z" fill="#DFA46D"/>
<rect id="Rectangle 1094" x="16" y="66" width="40" height="21" fill="white"/>
<path id="Rectangle 1095" d="M128 69L131.5 63H139V85H124V74L128 69Z" fill="white"/>
<rect id="Rectangle 968" x="12" y="18" width="8" height="8" fill="#724D50"/>
<rect id="Rectangle 969" x="20" y="26" width="8" height="8" fill="#724D50"/>
<rect id="Rectangle 970" x="12" y="26" width="8" height="8" fill="white"/>
<rect id="Rectangle 971" x="4" y="26" width="8" height="8" fill="#724D50"/>
<rect id="Rectangle 968_2" x="52" y="18" width="8" height="8" fill="#724D50"/>
<rect id="Rectangle 969_2" x="60" y="26" width="8" height="8" fill="#724D50"/>
<rect id="Rectangle 970_2" x="52" y="26" width="8" height="8" fill="white"/>
<rect id="Rectangle 972" x="60" y="34" width="8" height="8" fill="#724D50"/>
<rect id="Rectangle 1024" x="4" y="34" width="8" height="8" fill="#724D50"/>
<rect id="Rectangle 971_2" x="44" y="26" width="8" height="8" fill="#724D50"/>
<rect id="Rectangle 1015" x="56" y="74" width="8" height="8" fill="#724D50"/>
<rect id="Rectangle 1078" x="64" y="74" width="8" height="8" fill="#724D50"/>
<rect id="Rectangle 984" x="8" y="42" width="8" height="8" fill="#724D50"/>
<rect id="Rectangle 1026" y="42" width="8" height="8" fill="#724D50"/>
<rect id="Rectangle 981" x="64" y="50" width="8" height="8" fill="#724D50"/>
<rect id="Rectangle 985" y="50" width="8" height="8" fill="#724D50"/>
<rect id="Rectangle 982" x="64" y="58" width="8" height="8" fill="#724D50"/>
<rect id="Rectangle 986" y="58" width="8" height="8" fill="#724D50"/>
<rect id="Rectangle 1027" y="57" width="8" height="8" fill="#724D50"/>
<rect id="Rectangle 983" x="64" y="57" width="8" height="8" fill="#724D50"/>
<rect id="Rectangle 1000" x="64" y="66" width="8" height="8" fill="#724D50"/>
<rect id="Rectangle 1034" x="80" y="53" width="8" height="8" fill="#724D50"/>
<rect id="Rectangle 1059" x="72" y="53" width="8" height="8" fill="#724D50"/>
<rect id="Rectangle 1035" x="88" y="53" width="8" height="8" fill="#724D50"/>
<rect id="Rectangle 1036" x="96" y="61" width="8" height="8" fill="#724D50"/>
<rect id="Rectangle 1040" x="104" y="69" width="8" height="8" fill="#724D50"/>
<rect id="Rectangle 1046" x="16" y="87" width="12" height="8" fill="#724D50"/>
<rect id="Rectangle 1075" x="28" y="87" width="26" height="8" fill="#724D50"/>
<rect id="Rectangle 1079" x="52" y="82" width="8" height="8" fill="#724D50"/>
<rect id="Rectangle 1041" x="104" y="77" width="8" height="8" fill="#724D50"/>
<rect id="Rectangle 1061" x="112" y="77" width="8" height="8" fill="#724D50"/>
<rect id="Rectangle 1062" x="120" y="69" width="8" height="8" fill="#724D50"/>
<rect id="Rectangle 1077" x="128" y="61" width="8" height="8" fill="#724D50"/>
<rect id="Rectangle 1063" x="136" y="61" width="8" height="8" fill="#724D50"/>
<rect id="Rectangle 1064" x="132" y="77" width="8" height="8" fill="#724D50"/>
<rect id="Rectangle 1076" x="136" y="69" width="8" height="8" fill="#724D50"/>
<rect id="Rectangle 1065" x="124" y="85" width="8" height="8" fill="#724D50"/>
<rect id="Rectangle 1066" x="112" y="93" width="16" height="8" fill="#724D50"/>
<rect id="Rectangle 1067" x="106" y="101" width="8" height="8" fill="#724D50"/>
<rect id="Rectangle 1047" x="22" y="89" width="8" height="13" fill="#724D50"/>
<rect id="Rectangle 1080" x="26" y="101" width="10" height="8" fill="#724D50"/>
<rect id="Rectangle 1043" x="104" y="93" width="10" height="8" fill="#724D50"/>
<rect id="Rectangle 1044" x="100" y="101" width="8" height="8" fill="#724D50"/>
<rect id="Rectangle 1060" x="100" y="109" width="8" height="8" fill="#724D50"/>
<rect id="Rectangle 1045" x="100" y="117" width="8" height="8" fill="#724D50"/>
<rect id="Rectangle 1050" x="92" y="117" width="8" height="8" fill="#724D50"/>
<rect id="Rectangle 1051" x="92" y="117" width="8" height="8" fill="#724D50"/>
<rect id="Rectangle 1052" x="76" y="117" width="8" height="8" fill="#724D50"/>
<rect id="Rectangle 1053" x="68" y="117" width="8" height="8" fill="#724D50"/>
<rect id="Rectangle 1055" x="52" y="117" width="8" height="8" fill="#724D50"/>
<rect id="Rectangle 1056" x="44" y="117" width="8" height="8" fill="#724D50"/>
<rect id="Rectangle 1096" x="44" y="125" width="56" height="6" fill="#724D50"/>
<rect id="Rectangle 1054" x="68" y="117" width="8" height="8" fill="#724D50"/>
<rect id="Rectangle 1032" x="36" y="101" width="8" height="8" fill="#724D50"/>
<rect id="Rectangle 1033" x="44" y="109" width="8" height="8" fill="#724D50"/>
<rect id="Rectangle 1058" x="36" y="109" width="8" height="8" fill="#724D50"/>
<rect id="Rectangle 987" y="66" width="8" height="8" fill="#724D50"/>
<rect id="Rectangle 1020" x="5" y="74" width="11" height="8" fill="#724D50"/>
<rect id="Rectangle 975" x="30" y="34" width="10" height="8" fill="#724D50"/>
<rect id="Rectangle 1014" x="40" y="34" width="8" height="8" fill="#724D50"/>
<rect id="Rectangle 1002" x="56.0601" y="42" width="8" height="8" fill="#724D50"/>
<rect id="Rectangle 1025" x="64" y="42" width="8" height="8" fill="#724D50"/>
<rect id="Rectangle 1003" x="48" y="55" width="8" height="5" fill="#724D50"/>
<rect id="Rectangle 1070" x="56" y="55" width="8" height="5" fill="#724D50"/>
<rect id="Rectangle 1071" x="8" y="55" width="8" height="5" fill="#724D50"/>
<rect id="Rectangle 1009" x="16" y="55" width="8" height="5" fill="#724D50"/>
<rect id="Rectangle 1072" x="24" y="66" width="8" height="5" fill="#724D50"/>
<rect id="Rectangle 1073" x="40" y="66" width="8" height="5" fill="#724D50"/>
<rect id="Rectangle 1074" x="32" y="58" width="8" height="8" fill="#724D50"/>
<rect id="Rectangle 977" x="22" y="34" width="8" height="8" fill="#724D50"/>
<rect id="Rectangle 994" x="12" y="82" width="8" height="8" fill="#724D50"/>
<path id="Union_2" fill-rule="evenodd" clip-rule="evenodd" d="M78 18H92V21H90V24H87V21H78V18ZM84 27V24H87V27H84ZM84 30V27H81V30H78V33H92V30H84Z" fill="black"/>
<path id="Union_3" fill-rule="evenodd" clip-rule="evenodd" d="M98 0.642883H117V4.71431L114.286 4.71431V8.78574H110.214V4.71431L98 4.71431V0.642883ZM106.143 12.8572V8.78574H110.214L110.214 12.8572H106.143ZM106.143 16.9286V12.8572L102.071 12.8572V16.9286H98V21H117V16.9286H106.143Z" fill="black"/>
</g>
</svg>
