<svg xmlns="http://www.w3.org/2000/svg" width="27" height="26" viewBox="0 0 27 26" fill="none">
  <rect x="9.70996" y="8" width="8" height="9" fill="black"/>
  <rect x="12.71" y="2" width="2" height="6" fill="black"/>
  <rect x="9.70996" width="8" height="4" fill="black"/>
  <rect x="7.70996" y="9" width="12" height="6" fill="black"/>
  <rect x="6.70996" y="9" width="13" height="1" fill="black"/>
  <rect x="6.70996" y="1" width="13" height="5" fill="black"/>
  <rect x="4.70996" y="3" width="2" height="1" fill="black"/>
  <rect x="19.71" y="3" width="3" height="1" fill="black"/>
  <rect x="19.71" y="7" width="3" height="2" fill="black"/>
  <rect x="4.70996" y="7" width="2" height="2" fill="black"/>
  <rect x="7.70996" y="17" width="2" height="2" fill="black"/>
  <rect x="17.71" y="17" width="2" height="2" fill="black"/>
  <rect x="9.70996" y="24" width="8" height="2" fill="black"/>
  <rect x="17.71" y="21" width="2" height="3" fill="black"/>
  <rect x="18.71" y="19" width="3" height="3" fill="black"/>
  <rect x="20.71" y="18" width="2" height="3" fill="black"/>
  <rect x="4.70996" y="18" width="2" height="3" fill="black"/>
  <rect x="2.70996" y="15" width="3" height="5" fill="black"/>
  <rect x="0.709961" y="9" width="2" height="7" fill="black"/>
  <rect x="2.70996" y="6" width="21" height="6" fill="black"/>
  <rect x="4.70996" y="4" width="1" height="6" fill="black"/>
  <rect x="20.71" y="15" width="4" height="5" fill="black"/>
  <rect x="24.71" y="9" width="2" height="7" fill="black"/>
  <rect x="22.71" y="6" width="2" height="6" fill="black"/>
  <rect x="21.71" y="4" width="1" height="6" fill="black"/>
  <rect x="5.70996" y="19" width="3" height="3" fill="black"/>
  <rect x="6.70996" y="21" width="3" height="3" fill="black"/>
  <rect x="7.59209" y="2.29443" width="3.05882" height="6.11765" fill="white"/>
  <rect x="5.2981" y="3.82376" width="7.64706" height="3.82353" fill="white"/>
  <rect x="7.59209" y="4.58865" width="5.35294" height="3.82353" fill="white"/>
  <rect x="7.59209" y="8.41177" width="2.29412" height="0.764706" fill="white"/>
  <rect width="3.05882" height="6.11765" transform="matrix(-1 0 0 1 19.8278 2.29443)" fill="white"/>
  <rect width="7.64706" height="3.82353" transform="matrix(-1 0 0 1 22.1218 3.82376)" fill="white"/>
  <rect width="5.35294" height="3.82353" transform="matrix(-1 0 0 1 19.8278 4.58865)" fill="white"/>
  <rect width="2.29412" height="0.764706" transform="matrix(-1 0 0 1 19.8278 8.41177)" fill="white"/>
  <rect x="5.29793" y="9.17627" width="2.29412" height="8.41177" fill="white"/>
  <rect x="3.49564" y="11.1427" width="4.64286" height="5.57143" fill="white"/>
  <rect x="6.28136" y="14.857" width="1.85714" height="3.71429" fill="white"/>
  <rect x="6.82748" y="14.5291" width="3.05882" height="2.29412" fill="white"/>
  <rect x="2.23926" y="12.2349" width="3.05882" height="3.05882" fill="white"/>
  <rect width="2.29412" height="8.41177" transform="matrix(-1 0 0 1 22.122 9.17627)" fill="white"/>
  <rect width="4.64286" height="5.57143" transform="matrix(-1 0 0 1 23.9243 11.1427)" fill="white"/>
  <rect width="1.85714" height="3.71429" transform="matrix(-1 0 0 1 21.1386 14.857)" fill="white"/>
  <rect width="3.05882" height="2.29412" transform="matrix(-1 0 0 1 20.5924 14.5291)" fill="white"/>
  <rect width="3.05882" height="3.05882" transform="matrix(-1 0 0 1 25.1807 12.2349)" fill="white"/>
  <rect x="9.70996" y="17" width="8" height="7" fill="white"/>
  <rect x="8.70996" y="19" width="10" height="2" fill="white"/>
</svg>