<svg xmlns="http://www.w3.org/2000/svg" width="27" height="32" viewBox="0 0 27 32" fill="none">
  <rect x="14.7933" y="12.1245" width="2.16667" height="7.58336" transform="rotate(-90 14.7933 12.1245)" fill="black"/>
  <rect x="22.3768" y="14.2916" width="2.16667" height="2.16667" transform="rotate(-90 22.3768 14.2916)" fill="black"/>
  <rect x="22.3768" y="27.292" width="2.16667" height="2.16667" transform="rotate(-90 22.3768 27.292)" fill="black"/>
  <rect x="20.21" y="29.4581" width="2.16667" height="2.16667" transform="rotate(-90 20.21 29.4581)" fill="black"/>
  <rect x="11.5431" y="29.4581" width="2.16667" height="4.33335" transform="rotate(-90 11.5431 29.4581)" fill="black"/>
  <rect x="15.8768" y="31.6247" width="2.16667" height="4.33335" transform="rotate(-90 15.8768 31.6247)" fill="black"/>
  <rect x="2.87679" y="14.2916" width="2.16667" height="2.16667" transform="rotate(-90 2.87679 14.2916)" fill="black"/>
  <rect x="2.87679" y="27.292" width="2.16667" height="2.16667" transform="rotate(-90 2.87679 27.292)" fill="black"/>
  <rect x="5.04314" y="29.4581" width="2.16667" height="2.16667" transform="rotate(-90 5.04314 29.4581)" fill="black"/>
  <rect x="7.20996" y="31.6247" width="2.16667" height="4.33335" transform="rotate(-90 7.20996 31.6247)" fill="black"/>
  <rect x="0.709961" y="25.1245" width="10.8334" height="2.16667" transform="rotate(-90 0.709961 25.1245)" fill="black"/>
  <rect x="24.5431" y="25.1245" width="10.8334" height="2.16667" transform="rotate(-90 24.5431 25.1245)" fill="black"/>
  <rect x="5.04314" y="12.1245" width="2.16667" height="7.58336" transform="rotate(-90 5.04314 12.1245)" fill="black"/>
  <rect x="22.377" y="0.208038" width="2.16667" height="4.33335" fill="black"/>
  <rect x="16.96" y="2.37415" width="2.16667" height="5.41669" transform="rotate(-90 16.96 2.37415)" fill="black"/>
  <rect x="14.7932" y="4.5417" width="2.16667" height="2.16667" transform="rotate(-90 14.7932 4.5417)" fill="black"/>
  <rect x="12.6269" y="13.208" width="8.6667" height="2.16667" transform="rotate(-90 12.6269 13.208)" fill="black"/>
  <rect x="20.2102" y="6.70781" width="2.16667" height="2.16667" transform="rotate(-90 20.2102 6.70781)" fill="black"/>
  <rect x="14.7932" y="8.87439" width="2.16667" height="5.41669" transform="rotate(-90 14.7932 8.87439)" fill="black"/>
  <rect x="14.7932" y="6.70781" width="2.16667" height="5.41669" transform="rotate(-90 14.7932 6.70781)" fill="#BFE449"/>
  <rect x="16.96" y="4.5417" width="2.16667" height="5.41669" transform="rotate(-90 16.96 4.5417)" fill="#BFE449"/>
  <rect x="14.7933" y="12.1245" width="7.58336" height="15.1667" fill="#EA394B"/>
  <rect x="5.04314" y="12.1245" width="7.58336" height="15.1667" fill="#EA394B"/>
  <rect x="7.20996" y="27.292" width="4.33335" height="2.16667" fill="#EA394B"/>
  <rect x="11.5431" y="25.1245" width="4.33335" height="2.16667" fill="#EA394B"/>
  <rect x="15.8768" y="27.292" width="4.33335" height="2.16667" fill="#EA394B"/>
  <rect x="24.5431" y="14.2916" width="10.8334" height="21.6667" transform="rotate(90 24.5431 14.2916)" fill="#EA394B"/>
  <rect x="12.6269" y="15.3744" width="2.16667" height="2.16667" transform="rotate(-90 12.6269 15.3744)" fill="black"/>
  <rect x="14.7933" y="14.2916" width="2.16667" height="2.16667" transform="rotate(-90 14.7933 14.2916)" fill="black"/>
  <rect x="10.4601" y="14.2916" width="2.16667" height="2.16667" transform="rotate(-90 10.4601 14.2916)" fill="black"/>
</svg>