<svg xmlns="http://www.w3.org/2000/svg" width="27" height="28" viewBox="0 0 27 28" fill="none">
  <rect x="4.08496" y="5.25" width="19.25" height="14" fill="white"/>
  <rect x="6.70996" y="3.5" width="14.875" height="1.75" fill="white"/>
  <rect x="8.45996" y="1.75" width="11.375" height="1.75" fill="white"/>
  <rect x="8.45996" y="21" width="11.375" height="1.75" fill="white"/>
  <rect x="21.585" y="21" width="14.875" height="1.75" transform="rotate(180 21.585 21)" fill="white"/>
  <rect width="1.75" height="7" transform="matrix(-1 0 0 1 4.08496 8.75)" fill="white"/>
  <rect width="1.75" height="7" transform="matrix(-1 0 0 1 25.085 8.75)" fill="white"/>
  <rect x="5.25163" y="9.625" width="8.28089" height="1.75" fill="black"/>
  <rect x="5.25163" y="16.4778" width="8.28089" height="1.75" fill="black"/>
  <rect x="10.21" y="11.375" width="1.75" height="1.75" fill="black"/>
  <rect x="19.835" y="1.75" width="1.75" height="1.75" fill="black"/>
  <rect x="21.585" y="3.5" width="1.75" height="1.75" fill="black"/>
  <rect x="23.335" y="5.25" width="1.75" height="1.75" fill="black"/>
  <rect x="23.335" y="7" width="1.75" height="1.75" fill="black"/>
  <rect x="23.335" y="15.75" width="1.75" height="1.75" fill="black"/>
  <rect x="23.335" y="17.5" width="1.75" height="1.75" fill="black"/>
  <rect x="21.585" y="19.25" width="1.75" height="1.75" fill="black"/>
  <rect x="19.835" y="21" width="1.75" height="1.75" fill="black"/>
  <rect x="6.70996" y="21" width="1.75" height="1.75" fill="black"/>
  <rect x="2.33496" y="21" width="5.25" height="4.375" fill="black"/>
  <rect x="0.584961" y="23.625" width="5.25" height="4.375" fill="black"/>
  <rect x="3.20996" y="19.25" width="3.5" height="1.75" fill="black"/>
  <rect x="2.33496" y="15.75" width="1.75" height="3.5" fill="black"/>
  <rect x="0.584961" y="8.75" width="1.75" height="7" fill="black"/>
  <rect x="2.33496" y="5.25" width="1.75" height="3.5" fill="black"/>
  <rect x="4.08496" y="3.5" width="2.625" height="1.75" fill="black"/>
  <rect x="6.70996" y="1.75" width="1.75" height="1.75" fill="black"/>
  <rect x="8.45996" width="11.375" height="1.75" fill="black"/>
  <rect x="8.45996" y="22.75" width="11.375" height="1.75" fill="black"/>
  <rect x="25.085" y="8.75" width="1.75" height="1.75" fill="black"/>
  <rect x="25.085" y="10.5" width="1.75" height="1.75" fill="black"/>
  <rect x="25.085" y="12.25" width="1.75" height="1.75" fill="black"/>
  <rect x="25.085" y="14" width="1.75" height="1.75" fill="black"/>
  <rect x="8.45996" y="13.125" width="1.75" height="1.75" fill="black"/>
  <rect x="6.70996" y="14.875" width="1.75" height="1.75" fill="black"/>
  <rect x="13.71" y="6.125" width="8.28089" height="1.75" fill="black"/>
  <rect x="13.71" y="12.9778" width="8.28089" height="1.75" fill="black"/>
  <rect x="18.6683" y="7.875" width="1.75" height="1.75" fill="black"/>
  <rect x="16.9183" y="9.625" width="1.75" height="1.75" fill="black"/>
  <rect x="15.1683" y="11.375" width="1.75" height="1.75" fill="black"/>
  <rect x="3.20996" y="21.875" width="3.5" height="1.75" fill="white"/>
  <rect x="1.45996" y="25.375" width="2.625" height="0.875" fill="white"/>
  <rect x="4.08496" y="21" width="1.75" height="3.5" fill="white"/>
  <rect x="2.33496" y="24.5" width="0.875" height="2.625" fill="white"/>
</svg>