<svg width="75" height="76" viewBox="0 0 75 76" fill="none" xmlns="http://www.w3.org/2000/svg">
<path d="M69.0909 41.9701C69.0909 59.3794 54.9514 73.5 37.5 73.5C20.0486 73.5 5.90912 59.3794 5.90912 41.9701C5.90912 24.5609 20.0486 10.4403 37.5 10.4403C54.9514 10.4403 69.0909 24.5609 69.0909 41.9701Z" fill="#F8D26D" stroke="#DFA46D" stroke-width="5"/>
<rect x="38.856" y="36.1394" width="2.16667" height="7.58336" transform="rotate(-90 38.856 36.1394)" fill="black"/>
<rect x="46.4396" y="38.3065" width="2.16667" height="2.16667" transform="rotate(-90 46.4396 38.3065)" fill="black"/>
<rect x="46.4396" y="51.307" width="2.16667" height="2.16667" transform="rotate(-90 46.4396 51.307)" fill="black"/>
<rect x="44.2727" y="53.4731" width="2.16667" height="2.16667" transform="rotate(-90 44.2727 53.4731)" fill="black"/>
<rect x="35.6059" y="53.4731" width="2.16667" height="4.33335" transform="rotate(-90 35.6059 53.4731)" fill="black"/>
<rect x="39.9395" y="55.6396" width="2.16667" height="4.33335" transform="rotate(-90 39.9395 55.6396)" fill="black"/>
<rect x="26.9395" y="38.3065" width="2.16667" height="2.16667" transform="rotate(-90 26.9395 38.3065)" fill="black"/>
<rect x="26.9395" y="51.307" width="2.16667" height="2.16667" transform="rotate(-90 26.9395 51.307)" fill="black"/>
<rect x="29.1059" y="53.4731" width="2.16667" height="2.16667" transform="rotate(-90 29.1059 53.4731)" fill="black"/>
<rect x="31.2727" y="55.6396" width="2.16667" height="4.33335" transform="rotate(-90 31.2727 55.6396)" fill="black"/>
<rect x="24.7727" y="49.1394" width="10.8334" height="2.16667" transform="rotate(-90 24.7727 49.1394)" fill="black"/>
<rect x="48.6058" y="49.1394" width="10.8334" height="2.16667" transform="rotate(-90 48.6058 49.1394)" fill="black"/>
<rect x="29.1059" y="36.1394" width="2.16667" height="7.58336" transform="rotate(-90 29.1059 36.1394)" fill="black"/>
<rect x="46.4397" y="24.223" width="2.16667" height="4.33335" fill="black"/>
<rect x="41.0228" y="26.3891" width="2.16667" height="5.41669" transform="rotate(-90 41.0228 26.3891)" fill="black"/>
<rect x="38.856" y="28.5566" width="2.16667" height="2.16667" transform="rotate(-90 38.856 28.5566)" fill="black"/>
<rect x="36.6896" y="37.223" width="8.6667" height="2.16667" transform="rotate(-90 36.6896 37.223)" fill="black"/>
<rect x="44.2729" y="30.7227" width="2.16667" height="2.16667" transform="rotate(-90 44.2729 30.7227)" fill="black"/>
<rect x="38.856" y="32.8893" width="2.16667" height="5.41669" transform="rotate(-90 38.856 32.8893)" fill="black"/>
<rect x="38.856" y="30.7227" width="2.16667" height="5.41669" transform="rotate(-90 38.856 30.7227)" fill="#BFE449"/>
<rect x="41.0228" y="28.5566" width="2.16667" height="5.41669" transform="rotate(-90 41.0228 28.5566)" fill="#BFE449"/>
<rect x="38.856" y="36.1394" width="7.58336" height="15.1667" fill="#EA394B"/>
<rect x="29.1059" y="36.1394" width="7.58336" height="15.1667" fill="#EA394B"/>
<rect x="31.2727" y="51.307" width="4.33335" height="2.16667" fill="#EA394B"/>
<rect x="35.6059" y="49.1394" width="4.33335" height="2.16667" fill="#EA394B"/>
<rect x="39.9395" y="51.307" width="4.33335" height="2.16667" fill="#EA394B"/>
<rect x="48.6058" y="38.3065" width="10.8334" height="21.6667" transform="rotate(90 48.6058 38.3065)" fill="#EA394B"/>
<rect x="36.6896" y="39.3893" width="2.16667" height="2.16667" transform="rotate(-90 36.6896 39.3893)" fill="black"/>
<rect x="38.856" y="38.3065" width="2.16667" height="2.16667" transform="rotate(-90 38.856 38.3065)" fill="black"/>
<rect x="34.5228" y="38.3065" width="2.16667" height="2.16667" transform="rotate(-90 34.5228 38.3065)" fill="black"/>
</svg>
